<svg width="119" height="22" viewBox="0 0 119 22" fill="none" xmlns="http://www.w3.org/2000/svg">
<g clip-path="url(#clip0_321_33)">
<path d="M21.0728 0H25.1528V21.8955H21.0728V0Z" fill="white"/>
<path d="M27.1646 10.8709C27.1646 8.64387 28.7742 7.02637 30.9858 7.02637H40.3537C42.5672 7.02637 44.1749 8.64387 44.1749 10.8709V18.1556C44.1749 20.3826 42.5672 22.0021 40.3537 22.0021H30.978C28.7664 22.0021 27.1567 20.3826 27.1567 18.1556L27.1646 10.8709ZM31.6191 11.1885V17.838C31.6115 18.0906 31.6554 18.342 31.7479 18.5769C31.8405 18.8118 31.9799 19.0251 32.1575 19.2038C32.3351 19.3825 32.5471 19.5227 32.7806 19.6158C33.0141 19.709 33.264 19.7531 33.515 19.7455H37.8284C38.0795 19.7531 38.3296 19.709 38.5631 19.6159C38.7967 19.5227 39.0089 19.3825 39.1866 19.2039C39.3643 19.0253 39.5039 18.8119 39.5967 18.577C39.6895 18.3422 39.7336 18.0907 39.7263 17.838V11.1865C39.7336 10.9338 39.6895 10.6823 39.5967 10.4474C39.5039 10.2126 39.3643 9.99924 39.1866 9.8206C39.0089 9.64195 38.7967 9.50176 38.5631 9.40863C38.3296 9.3155 38.0795 9.2714 37.8284 9.27903H33.515C33.264 9.27138 33.0141 9.31549 32.7806 9.40864C32.5471 9.5018 32.3351 9.64202 32.1575 9.82069C31.9799 9.99936 31.8405 10.2127 31.7479 10.4476C31.6554 10.6825 31.6115 10.9339 31.6191 11.1865V11.1885Z" fill="white"/>
<path d="M59.2892 22.0021H49.9213C47.7098 22.0021 46.1001 20.3826 46.1001 18.1556V10.8709C46.1001 8.64387 47.7098 7.02637 49.9213 7.02637H59.2892C61.5027 7.02637 63.1105 8.64387 63.1105 10.8709V12.8652H58.6853V11.3325C58.6941 11.0607 58.6473 10.79 58.5479 10.5371C58.4485 10.2843 58.2986 10.0546 58.1075 9.86234C57.9164 9.67007 57.6881 9.51928 57.4368 9.41929C57.1855 9.3193 56.9164 9.27223 56.6463 9.28101H52.5937C52.3235 9.27223 52.0545 9.3193 51.8032 9.41929C51.5518 9.51928 51.3236 9.67007 51.1325 9.86234C50.9413 10.0546 50.7915 10.2843 50.6921 10.5371C50.5927 10.79 50.5459 11.0607 50.5546 11.3325V17.696C50.5459 17.9677 50.5927 18.2384 50.6921 18.4913C50.7915 18.7442 50.9413 18.9738 51.1325 19.1661C51.3236 19.3584 51.5518 19.5092 51.8032 19.6092C52.0545 19.7091 52.3235 19.7562 52.5937 19.7474H56.6463C56.9164 19.7562 57.1855 19.7091 57.4368 19.6092C57.6881 19.5092 57.9164 19.3584 58.1075 19.1661C58.2986 18.9738 58.4485 18.7442 58.5479 18.4913C58.6473 18.2384 58.6941 17.9677 58.6853 17.696V17.0884H63.1105V18.1575C63.1105 20.3826 61.5027 22.0021 59.2892 22.0021Z" fill="white"/>
<path d="M65.2886 18.3014V10.6972C65.2886 8.55698 66.812 7.02627 68.9373 7.02627H75.8759V0H80.8187V21.9724H68.951C66.8179 21.9724 65.2886 20.4397 65.2886 18.3014ZM71.5822 19.7177H75.8759V9.42491H71.5959C71.364 9.41838 71.1331 9.45952 70.9175 9.54584C70.7019 9.63215 70.5061 9.76181 70.342 9.92688C70.178 10.092 70.0491 10.289 69.9633 10.5059C69.8775 10.7228 69.8366 10.955 69.8431 11.1884V17.9543C69.8367 18.1869 69.8773 18.4185 69.9626 18.6349C70.0479 18.8512 70.1761 19.0479 70.3393 19.2128C70.5026 19.3778 70.6974 19.5076 70.9121 19.5944C71.1268 19.6812 71.3568 19.7232 71.5881 19.7177H71.5822Z" fill="#3D26DF"/>
<path d="M82.8228 17.1436C82.8228 15.2658 84.1736 13.9067 86.0401 13.9067H95.408V11.652C95.4158 11.339 95.3603 11.0277 95.2448 10.737C95.1293 10.4462 94.9563 10.1822 94.7363 9.96077C94.5162 9.73938 94.2537 9.56531 93.9648 9.44914C93.6758 9.33296 93.3664 9.2771 93.0553 9.28495H90.2104C89.8993 9.2771 89.5899 9.33296 89.3009 9.44914C89.0119 9.56531 88.7494 9.73938 88.5294 9.96077C88.3093 10.1822 88.1363 10.4462 88.0208 10.737C87.9054 11.0277 87.8498 11.339 87.8576 11.652V12.7784H82.9345V10.5533C82.9345 8.49987 84.3991 7.02637 86.4401 7.02637H96.3236C98.3646 7.02637 99.8292 8.49987 99.8292 10.5533V18.6408C99.8292 20.5207 98.4783 21.8798 96.6118 21.8798H86.0362C84.1697 21.8798 82.8188 20.5207 82.8188 18.6408L82.8228 17.1436ZM89.0301 19.631H92.1906C94.0571 19.631 95.408 18.9071 95.408 16.7097V15.6701H89.0301C88.7982 15.6636 88.5673 15.7048 88.3517 15.7911C88.1361 15.8774 87.9403 16.007 87.7762 16.1721C87.6122 16.3372 87.4833 16.5342 87.3975 16.7511C87.3117 16.968 87.2708 17.2003 87.2773 17.4336V17.8676C87.2708 18.1009 87.3117 18.3332 87.3975 18.5501C87.4833 18.767 87.6122 18.964 87.7762 19.1291C87.9403 19.2941 88.1361 19.4238 88.3517 19.5101C88.5673 19.5964 88.7982 19.6376 89.0301 19.631V19.631Z" fill="#3D26DF"/>
<path d="M101.988 10.8709C101.988 8.64387 103.597 7.02637 105.811 7.02637H115.177C117.39 7.02637 119 8.64387 119 10.8709V18.1556C119 20.3826 117.39 22.0021 115.177 22.0021H105.811C103.597 22.0021 101.988 20.3826 101.988 18.1556V10.8709ZM106.442 11.1865V17.836C106.435 18.0886 106.479 18.34 106.571 18.5749C106.664 18.8098 106.803 19.0232 106.981 19.2018C107.158 19.3805 107.37 19.5207 107.604 19.6139C107.837 19.707 108.087 19.7511 108.338 19.7435H112.652C112.903 19.7511 113.153 19.707 113.386 19.6139C113.62 19.5207 113.832 19.3805 114.009 19.2018C114.187 19.0232 114.326 18.8098 114.419 18.5749C114.511 18.34 114.555 18.0886 114.548 17.836V11.1865C114.555 10.9339 114.511 10.6825 114.419 10.4476C114.326 10.2127 114.187 9.99936 114.009 9.82069C113.832 9.64202 113.62 9.5018 113.386 9.40864C113.153 9.31549 112.903 9.27138 112.652 9.27903H108.338C108.087 9.27138 107.837 9.31549 107.604 9.40864C107.37 9.5018 107.158 9.64202 106.981 9.82069C106.803 9.99936 106.664 10.2127 106.571 10.4476C106.479 10.6825 106.435 10.9339 106.442 11.1865Z" fill="#3D26DF"/>
<path d="M11.6323 14.7764V15.1847C11.6323 15.1176 11.6323 15.0525 11.6323 14.9874C11.6323 14.9223 11.6384 14.8434 11.6323 14.7764Z" fill="white"/>
<path d="M16.9888 13.0305C16.5611 12.2708 15.9362 11.6422 15.1811 11.2118C14.4084 10.7729 13.5409 10.5305 12.6539 10.5057V10.2926C13.4381 10.1467 14.1826 9.83473 14.838 9.37736C15.4498 8.953 15.9503 8.38581 16.2967 7.72435C16.6432 7.0484 16.8196 6.29726 16.8104 5.53677C16.8329 4.5018 16.5311 3.48594 15.9477 2.63316C15.3726 1.80994 14.523 1.17741 13.3989 0.735554C12.2748 0.293699 10.9024 0.0721158 9.28159 0.0708008H0V21.8538H10.0639C11.4527 21.8843 12.8318 21.6153 14.1086 21.0648C15.1791 20.6079 16.095 19.8488 16.7457 18.8792C17.3567 17.9333 17.6735 16.8255 17.6554 15.6974C17.6722 14.7647 17.4421 13.8443 16.9888 13.0305ZM5.48974 3.17759H11.6363V9.36157H5.48974V3.17759ZM11.6324 17.6957H5.48974V11.5058H11.6363V14.7763C11.6363 14.8433 11.6363 14.9124 11.6363 14.9834C11.6363 15.0544 11.6363 15.1175 11.6363 15.1806L11.6324 17.6957Z" fill="white"/>
<path d="M5.48582 0.0708008H0V21.8538H5.48582V0.0708008Z" fill="#3D26DF"/>
</g>
<defs>
<clipPath id="clip0_321_33">
<rect width="119" height="22" fill="white"/>
</clipPath>
</defs>
</svg>
