<svg width="185" height="34" viewBox="0 0 185 34" fill="none" xmlns="http://www.w3.org/2000/svg">
<g clip-path="url(#clip0_216_482)">
<path d="M32.7603 0H39.1032V33.8384H32.7603V0Z" fill="white"/>
<path d="M42.2304 16.8004C42.2304 13.3587 44.7329 10.8589 48.171 10.8589H62.7345C66.1758 10.8589 68.6751 13.3587 68.6751 16.8004V28.0586C68.6751 31.5003 66.1758 34.0032 62.7345 34.0032H48.1589C44.7207 34.0032 42.2183 31.5003 42.2183 28.0586L42.2304 16.8004ZM49.1556 17.2912V27.5678C49.1438 27.9581 49.2119 28.3467 49.3558 28.7097C49.4998 29.0727 49.7165 29.4024 49.9926 29.6786C50.2686 29.9547 50.5983 30.1714 50.9612 30.3154C51.3242 30.4593 51.7127 30.5275 52.103 30.5157H58.8087C59.1991 30.5275 59.5878 30.4593 59.9509 30.3154C60.314 30.1715 60.6438 29.9548 60.9202 29.6787C61.1965 29.4026 61.4134 29.0729 61.5577 28.7099C61.702 28.3469 61.7706 27.9582 61.7592 27.5678V17.2882C61.7706 16.8977 61.702 16.509 61.5577 16.146C61.4134 15.783 61.1965 15.4533 60.9202 15.1772C60.6438 14.9012 60.314 14.6845 59.9509 14.5406C59.5878 14.3966 59.1991 14.3285 58.8087 14.3403H52.103C51.7127 14.3285 51.3242 14.3966 50.9612 14.5406C50.5983 14.6845 50.2686 14.9013 49.9926 15.1774C49.7165 15.4535 49.4998 15.7832 49.3558 16.1462C49.2119 16.5092 49.1438 16.8979 49.1556 17.2882V17.2912Z" fill="white"/>
<path d="M92.1725 34.0032H77.6091C74.1709 34.0032 71.6685 31.5003 71.6685 28.0586V16.8004C71.6685 13.3587 74.1709 10.8589 77.6091 10.8589H92.1725C95.6138 10.8589 98.1131 13.3587 98.1131 16.8004V19.8825H91.2337V17.5138C91.2473 17.0938 91.1746 16.6754 91.0201 16.2846C90.8656 15.8939 90.6326 15.5389 90.3355 15.2418C90.0384 14.9446 89.6835 14.7116 89.2927 14.557C88.902 14.4025 88.4837 14.3298 88.0638 14.3433H81.7635C81.3436 14.3298 80.9253 14.4025 80.5346 14.557C80.1439 14.7116 79.789 14.9446 79.4919 15.2418C79.1948 15.5389 78.9618 15.8939 78.8072 16.2846C78.6527 16.6754 78.58 17.0938 78.5936 17.5138V27.3483C78.58 27.7683 78.6527 28.1866 78.8072 28.5774C78.9618 28.9682 79.1948 29.3231 79.4919 29.6203C79.789 29.9174 80.1439 30.1505 80.5346 30.305C80.9253 30.4595 81.3436 30.5323 81.7635 30.5187H88.0638C88.4837 30.5323 88.902 30.4595 89.2927 30.305C89.6835 30.1505 90.0384 29.9174 90.3355 29.6203C90.6326 29.3231 90.8656 28.9682 91.0201 28.5774C91.1746 28.1866 91.2473 27.7683 91.2337 27.3483V26.4093H98.1131V28.0616C98.1131 31.5003 95.6138 34.0032 92.1725 34.0032Z" fill="white"/>
<path d="M101.5 28.2841V16.5321C101.5 13.2244 103.868 10.8588 107.172 10.8588H117.959V0H125.643V33.9573H107.193C103.877 33.9573 101.5 31.5886 101.5 28.2841ZM111.284 30.4729H117.959V14.5658H111.305C110.944 14.5557 110.586 14.6193 110.25 14.7527C109.915 14.886 109.611 15.0864 109.356 15.3415C109.101 15.5967 108.9 15.9011 108.767 16.2364C108.634 16.5716 108.57 16.9305 108.58 17.2911V27.7475C108.57 28.1071 108.633 28.465 108.766 28.7994C108.899 29.1337 109.098 29.4376 109.352 29.6926C109.605 29.9475 109.908 30.1482 110.242 30.2823C110.576 30.4164 110.933 30.4813 111.293 30.4729H111.284Z" fill="#3D26DF"/>
<path d="M128.758 26.4947C128.758 23.5925 130.858 21.4921 133.759 21.4921H148.323V18.0076C148.335 17.5239 148.249 17.0428 148.069 16.5935C147.89 16.1441 147.621 15.736 147.279 15.3939C146.936 15.0517 146.528 14.7827 146.079 14.6032C145.63 14.4236 145.149 14.3373 144.665 14.3494H140.243C139.759 14.3373 139.278 14.4236 138.829 14.6032C138.379 14.7827 137.971 15.0517 137.629 15.3939C137.287 15.736 137.018 16.1441 136.839 16.5935C136.659 17.0428 136.573 17.5239 136.585 18.0076V19.7483H128.931V16.3096C128.931 13.1361 131.208 10.8589 134.381 10.8589H149.746C152.919 10.8589 155.196 13.1361 155.196 16.3096V28.8085C155.196 31.7137 153.096 33.8141 150.194 33.8141H133.753C130.852 33.8141 128.751 31.7137 128.751 28.8085L128.758 26.4947ZM138.408 30.3388H143.321C146.223 30.3388 148.323 29.22 148.323 25.824V24.2174H138.408C138.047 24.2073 137.688 24.2709 137.353 24.4043C137.018 24.5377 136.713 24.7381 136.458 24.9932C136.203 25.2483 136.003 25.5528 135.87 25.888C135.736 26.2233 135.673 26.5822 135.683 26.9428V27.6135C135.673 27.9741 135.736 28.333 135.87 28.6683C136.003 29.0035 136.203 29.308 136.458 29.5631C136.713 29.8182 137.018 30.0186 137.353 30.152C137.688 30.2853 138.047 30.3489 138.408 30.3388Z" fill="#3D26DF"/>
<path d="M158.552 16.8004C158.552 13.3587 161.055 10.8589 164.496 10.8589H179.056C182.498 10.8589 185 13.3587 185 16.8004V28.0586C185 31.5003 182.498 34.0032 179.056 34.0032H164.496C161.055 34.0032 158.552 31.5003 158.552 28.0586V16.8004ZM165.477 17.2882V27.5647C165.466 27.955 165.534 28.3437 165.678 28.7067C165.822 29.0697 166.038 29.3994 166.314 29.6755C166.59 29.9516 166.92 30.1683 167.283 30.3123C167.646 30.4563 168.035 30.5244 168.425 30.5126H175.13C175.521 30.5244 175.909 30.4563 176.272 30.3123C176.635 30.1683 176.965 29.9516 177.241 29.6755C177.517 29.3994 177.734 29.0697 177.878 28.7067C178.022 28.3437 178.09 27.955 178.078 27.5647V17.2882C178.09 16.8979 178.022 16.5092 177.878 16.1462C177.734 15.7832 177.517 15.4535 177.241 15.1774C176.965 14.9013 176.635 14.6845 176.272 14.5406C175.909 14.3966 175.521 14.3285 175.13 14.3403H168.425C168.035 14.3285 167.646 14.3966 167.283 14.5406C166.92 14.6845 166.59 14.9013 166.314 15.1774C166.038 15.4535 165.822 15.7832 165.678 16.1462C165.534 16.5092 165.466 16.8979 165.477 17.2882Z" fill="#3D26DF"/>
<path d="M18.084 22.8364V23.4675C18.084 23.3638 18.084 23.2632 18.084 23.1626C18.084 23.062 18.0931 22.9401 18.084 22.8364Z" fill="white"/>
<path d="M26.4112 20.1386C25.7462 18.9644 24.7748 17.9929 23.6009 17.3278C22.3996 16.6495 21.0509 16.2749 19.672 16.2365V15.9072C20.8912 15.6817 22.0487 15.1996 23.0675 14.4927C24.0186 13.8369 24.7967 12.9603 25.3352 11.9381C25.8739 10.8934 26.1481 9.73257 26.1338 8.55728C26.1688 6.95776 25.6996 5.3878 24.7927 4.06987C23.8986 2.79763 22.5778 1.82007 20.8302 1.13721C19.0827 0.454343 16.9491 0.111896 14.4294 0.109863H0V33.7745H15.6455C17.8046 33.8216 19.9486 33.4058 21.9336 32.5551C23.5978 31.849 25.0217 30.6758 26.0332 29.1774C26.9831 27.7155 27.4756 26.0034 27.4475 24.2601C27.4735 22.8187 27.1159 21.3962 26.4112 20.1386ZM8.53448 4.91126H18.09V14.4683H8.53448V4.91126ZM18.0839 27.3483H8.53448V17.7821H18.09V22.8365C18.09 22.9401 18.09 23.0468 18.09 23.1566C18.09 23.2663 18.09 23.3639 18.09 23.4614L18.0839 27.3483Z" fill="white"/>
<path d="M8.52838 0.109863H0V33.7745H8.52838V0.109863Z" fill="#3D26DF"/>
</g>
<defs>
<clipPath id="clip0_216_482">
<rect width="185" height="34" fill="white"/>
</clipPath>
</defs>
</svg>
